<svg xmlns="http://www.w3.org/2000/svg" viewBox="0 0 500 500">
  <rect width="500" height="500" fill="#ffffff"/>
  <defs>
    <clipPath id="c"><circle cx="250" cy="250" r="238"/></clipPath>
    <path id="arc" d="M250,14 a236,236 0 1,1 -0.1,0"/>
  </defs>
  <circle cx="250" cy="250" r="238" fill="#fafafa" stroke="#eeeeee" stroke-width="1.5"/>
  <g clip-path="url(#c)">
    <!-- Watermark -->
    <text x="250" y="300" text-anchor="middle" font-family="Georgia,serif" font-size="118" fill="#f0f0f0" font-weight="bold" letter-spacing="-4">GAZE</text>
    <!-- Hero -->
    <text x="250" y="228" text-anchor="middle" font-family="Georgia,serif" font-size="36" fill="#cc0000" font-weight="bold" transform="rotate(-4,250,228)">where do you look?</text>
    <!-- Impact words (red) -->
    <text x="250" y="118" text-anchor="middle" font-family="Georgia,serif" font-size="28" fill="#cc0000" font-weight="bold">predict intent</text>
    <text x="378" y="176" text-anchor="middle" font-family="Georgia,serif" font-size="26" fill="#cc0000" transform="rotate(11,378,176)">stairs</text>
    <text x="375" y="330" text-anchor="middle" font-family="Georgia,serif" font-size="22" fill="#cc0000" transform="rotate(-9,375,330)">anticipate</text>
    <text x="250" y="400" text-anchor="middle" font-family="Georgia,serif" font-size="26" fill="#cc0000" transform="rotate(3,250,400)">prosthetic control</text>
    <text x="122" y="330" text-anchor="middle" font-family="Georgia,serif" font-size="20" fill="#cc0000" transform="rotate(9,122,330)">adapt</text>
    <text x="122" y="176" text-anchor="middle" font-family="Georgia,serif" font-size="22" fill="#cc0000" transform="rotate(-11,122,176)">amputees</text>
    <!-- Support words (gray) -->
    <text x="250" y="60" text-anchor="middle" font-family="Georgia,serif" font-size="15" fill="#777">visual system · terrain</text>
    <text x="432" y="255" text-anchor="middle" font-family="Arial,sans-serif" font-size="13" fill="#888" transform="rotate(88,432,255)">fixation</text>
    <text x="68" y="255" text-anchor="middle" font-family="Arial,sans-serif" font-size="13" fill="#888" transform="rotate(-88,68,255)">able-bodied</text>
    <text x="250" y="452" text-anchor="middle" font-family="Arial,sans-serif" font-size="13" fill="#777">foot placement · spatial map</text>
    <text x="396" y="118" text-anchor="middle" font-family="Arial,sans-serif" font-size="12" fill="#aaa" transform="rotate(28,396,118)">locomotion</text>
    <text x="104" y="118" text-anchor="middle" font-family="Arial,sans-serif" font-size="12" fill="#aaa" transform="rotate(-28,104,118)">navigation</text>
    <text x="396" y="388" text-anchor="middle" font-family="Arial,sans-serif" font-size="12" fill="#aaa" transform="rotate(-25,396,388)">stair nosing</text>
    <text x="104" y="388" text-anchor="middle" font-family="Arial,sans-serif" font-size="12" fill="#aaa" transform="rotate(25,104,388)">perturbation</text>
  </g>
  <text font-family="Arial,sans-serif" font-size="10" fill="#cccccc" letter-spacing="3">
    <textPath href="#arc">IEEE EMBC 2019  ·  TOBII PRO GLASSES  ·  TRANSTIBIAL AMPUTEE  ·  EYE TRACKING  ·  LEVEL-GROUND TRANSITION  ·</textPath>
  </text>
</svg>
