<svg xmlns="http://www.w3.org/2000/svg" viewBox="0 0 500 500">
  <rect width="500" height="500" fill="#fff"/>
  <defs>
    <clipPath id="c"><circle cx="250" cy="250" r="236"/></clipPath>
    <path id="arc" d="M250,15 a235,235 0 1,1 -0.1,0"/>
  </defs>
  <circle cx="250" cy="250" r="236" fill="#fff" stroke="#eee" stroke-width="1"/>
  <g clip-path="url(#c)" font-family="Arial, sans-serif">
    <text x="152" y="52" text-anchor="middle" font-size="10" fill="#ddd">training</text>
    <text x="215" y="52" text-anchor="middle" font-size="10" fill="#ddd">obstacle</text>
    <text x="282" y="52" text-anchor="middle" font-size="10" fill="#ddd">gait</text>
    <text x="338" y="52" text-anchor="middle" font-size="10" fill="#ddd">session</text>
    <text x="108" y="66" text-anchor="middle" font-size="10" fill="#ccc">physical</text>
    <text x="182" y="66" text-anchor="middle" font-size="10" fill="#ccc">clinical</text>
    <text x="252" y="66" text-anchor="middle" font-size="10" fill="#ccc">trial</text>
    <text x="316" y="66" text-anchor="middle" font-size="10" fill="#ccc">balance</text>
    <text x="380" y="66" text-anchor="middle" font-size="10" fill="#ccc">mobility</text>
    <text x="82" y="82" text-anchor="middle" font-size="11" fill="#bbb">course</text>
    <text x="165" y="82" text-anchor="middle" font-size="11" fill="#bbb">virtual</text>
    <text x="250" y="82" text-anchor="middle" font-size="11" fill="#bbb">amputee</text>
    <text x="338" y="82" text-anchor="middle" font-size="11" fill="#bbb">stroke</text>
    <text x="414" y="82" text-anchor="middle" font-size="11" fill="#bbb">setup</text>
    <text x="68" y="100" text-anchor="middle" font-size="12" fill="#aaa" transform="rotate(-5,68,100)">step</text>
    <text x="175" y="100" text-anchor="middle" font-size="12" fill="#aaa">motion</text>
    <text x="252" y="100" text-anchor="middle" font-size="12" fill="#aaa">therapy</text>
    <text x="332" y="100" text-anchor="middle" font-size="12" fill="#aaa">sensor</text>
    <text x="425" y="100" text-anchor="middle" font-size="11" fill="#bbb" transform="rotate(5,425,100)">walk</text>
    <text x="50" y="120" text-anchor="middle" font-size="13" fill="#aaa" transform="rotate(-6,50,120)">AR</text>
    <text x="155" y="120" text-anchor="middle" font-size="14" fill="#888">obstacle</text>
    <text x="268" y="120" text-anchor="middle" font-size="14" fill="#888">avoidance</text>
    <text x="388" y="120" text-anchor="middle" font-size="14" fill="#888">hologram</text>
    <text x="450" y="120" text-anchor="middle" font-size="10" fill="#ccc" transform="rotate(6,450,120)">risky</text>
    <text x="40" y="142" text-anchor="middle" font-size="13" fill="#aaa" transform="rotate(-8,40,142)">limited</text>
    <text x="155" y="142" text-anchor="middle" font-size="16" fill="#666">Vicon capture</text>
    <text x="338" y="142" text-anchor="middle" font-size="15" fill="#666">augmented reality</text>
    <text x="445" y="142" text-anchor="middle" font-size="11" fill="#bbb" transform="rotate(7,445,142)">trial</text>
    <text x="30" y="162" text-anchor="middle" font-size="11" fill="#bbb" transform="rotate(-10,30,162)">gait</text>
    <text x="148" y="162" text-anchor="middle" font-size="16" fill="#555">mixed reality</text>
    <text x="352" y="162" text-anchor="middle" font-size="15" fill="#666">inflexible</text>
    <text x="458" y="162" text-anchor="middle" font-size="10" fill="#ccc" transform="rotate(8,458,162)">setup</text>
    <text x="148" y="196" text-anchor="middle" font-family="Georgia,serif" font-size="30" fill="#cc0000" font-weight="bold" transform="rotate(-5,148,196)">HoloLens</text>
    <text x="395" y="192" text-anchor="middle" font-family="Georgia,serif" font-size="24" fill="#cc0000" font-weight="bold" transform="rotate(5,395,192)">safe</text>
    <text x="22" y="222" text-anchor="middle" font-size="11" fill="#bbb" transform="rotate(-90,22,222)">clinical</text>
    <text x="162" y="222" text-anchor="middle" font-size="14" fill="#888">training</text>
    <text x="268" y="222" text-anchor="middle" font-size="14" fill="#888">does it transfer?</text>
    <text x="400" y="222" text-anchor="middle" font-size="13" fill="#aaa">scalable</text>
    <text x="462" y="222" text-anchor="middle" font-size="10" fill="#ccc" transform="rotate(90,462,222)">physical</text>
    <text x="250" y="262" text-anchor="middle" font-family="Georgia,serif" font-size="42" fill="#cc0000" font-weight="bold" transform="rotate(-2,250,262)">programmable</text>
    <text x="22" y="288" text-anchor="middle" font-size="10" fill="#ccc" transform="rotate(-90,22,288)">obstacle</text>
    <text x="138" y="290" text-anchor="middle" font-size="14" fill="#888">courses</text>
    <text x="252" y="290" text-anchor="middle" font-size="15" fill="#555" font-style="italic">rehabilitation</text>
    <text x="382" y="290" text-anchor="middle" font-size="13" fill="#aaa">flexible</text>
    <text x="462" y="288" text-anchor="middle" font-size="10" fill="#ccc" transform="rotate(90,462,288)">virtual</text>
    <text x="138" y="328" text-anchor="middle" font-family="Georgia,serif" font-size="26" fill="#cc0000" font-weight="bold" transform="rotate(6,138,328)">scalable</text>
    <text x="390" y="328" text-anchor="middle" font-family="Georgia,serif" font-size="22" fill="#cc0000" transform="rotate(-6,390,328)">transfer</text>
    <text x="30" y="355" text-anchor="middle" font-size="11" fill="#bbb" transform="rotate(-10,30,355)">session</text>
    <text x="148" y="355" text-anchor="middle" font-size="13" fill="#aaa">gait analysis</text>
    <text x="260" y="355" text-anchor="middle" font-size="14" fill="#888">motion capture</text>
    <text x="380" y="355" text-anchor="middle" font-size="13" fill="#aaa">balance</text>
    <text x="460" y="355" text-anchor="middle" font-size="11" fill="#bbb" transform="rotate(8,460,355)">walk</text>
    <text x="250" y="390" text-anchor="middle" font-family="Georgia,serif" font-size="26" fill="#cc0000" font-weight="bold" transform="rotate(3,250,390)">safe training</text>
    <text x="72" y="415" text-anchor="middle" font-size="13" fill="#aaa" transform="rotate(-8,72,415)">amputee</text>
    <text x="168" y="415" text-anchor="middle" font-size="13" fill="#aaa">stroke</text>
    <text x="252" y="415" text-anchor="middle" font-size="13" fill="#aaa">obstacle</text>
    <text x="338" y="415" text-anchor="middle" font-size="13" fill="#aaa">clinical</text>
    <text x="428" y="415" text-anchor="middle" font-size="12" fill="#bbb" transform="rotate(6,428,415)">trial</text>
    <text x="110" y="433" text-anchor="middle" font-size="11" fill="#bbb" transform="rotate(-5,110,433)">therapy</text>
    <text x="212" y="433" text-anchor="middle" font-size="11" fill="#bbb">hologram</text>
    <text x="298" y="433" text-anchor="middle" font-size="11" fill="#bbb">virtual</text>
    <text x="388" y="433" text-anchor="middle" font-size="11" fill="#bbb" transform="rotate(5,388,433)">risky</text>
    <text x="152" y="450" text-anchor="middle" font-size="10" fill="#ccc" transform="rotate(-4,152,450)">training</text>
    <text x="252" y="450" text-anchor="middle" font-size="10" fill="#ccc">physical</text>
    <text x="346" y="450" text-anchor="middle" font-size="10" fill="#ccc" transform="rotate(4,346,450)">AR</text>
  </g>
  <text font-family="Arial,sans-serif" font-size="10" fill="#cccccc" letter-spacing="3">
    <textPath href="#arc">BMES 2018  ·  HOLOLENS  ·  VICON  ·  MIXED REALITY  ·  OBSTACLE TRAINING  ·  AMPUTEE  ·  STROKE  ·</textPath>
  </text>
</svg>
