<svg xmlns="http://www.w3.org/2000/svg" viewBox="0 0 500 500">
  <rect width="500" height="500" fill="#fff"/>
  <defs>
    <clipPath id="c"><circle cx="250" cy="250" r="236"/></clipPath>
    <path id="arc" d="M250,15 a235,235 0 1,1 -0.1,0"/>
  </defs>
  <circle cx="250" cy="250" r="236" fill="#fff" stroke="#eee" stroke-width="1"/>
  <g clip-path="url(#c)" font-family="Arial, sans-serif">
    <text x="152" y="52" text-anchor="middle" font-size="10" fill="#ddd">gaze</text>
    <text x="210" y="52" text-anchor="middle" font-size="10" fill="#ddd">fixation</text>
    <text x="278" y="52" text-anchor="middle" font-size="10" fill="#ddd">terrain</text>
    <text x="338" y="52" text-anchor="middle" font-size="10" fill="#ddd">stairs</text>
    <text x="108" y="66" text-anchor="middle" font-size="10" fill="#ccc">vision</text>
    <text x="175" y="66" text-anchor="middle" font-size="10" fill="#ccc">walking</text>
    <text x="252" y="66" text-anchor="middle" font-size="10" fill="#ccc">foot</text>
    <text x="318" y="66" text-anchor="middle" font-size="10" fill="#ccc">balance</text>
    <text x="382" y="66" text-anchor="middle" font-size="10" fill="#ccc">step</text>
    <text x="82" y="82" text-anchor="middle" font-size="11" fill="#bbb">navigation</text>
    <text x="175" y="82" text-anchor="middle" font-size="11" fill="#bbb">gaze</text>
    <text x="252" y="82" text-anchor="middle" font-size="11" fill="#bbb">fixation</text>
    <text x="330" y="82" text-anchor="middle" font-size="11" fill="#bbb">stair</text>
    <text x="410" y="82" text-anchor="middle" font-size="11" fill="#bbb">nosing</text>
    <text x="68" y="100" text-anchor="middle" font-size="12" fill="#aaa" transform="rotate(-5,68,100)">transition</text>
    <text x="175" y="100" text-anchor="middle" font-size="12" fill="#aaa">locomotion</text>
    <text x="258" y="100" text-anchor="middle" font-size="12" fill="#aaa">spatial</text>
    <text x="338" y="100" text-anchor="middle" font-size="12" fill="#aaa">map</text>
    <text x="418" y="100" text-anchor="middle" font-size="11" fill="#bbb" transform="rotate(5,418,100)">vision</text>
    <text x="50" y="120" text-anchor="middle" font-size="13" fill="#aaa" transform="rotate(-6,50,120)">terrain</text>
    <text x="155" y="120" text-anchor="middle" font-size="14" fill="#888">able-bodied</text>
    <text x="278" y="120" text-anchor="middle" font-size="14" fill="#888">visual system</text>
    <text x="400" y="120" text-anchor="middle" font-size="14" fill="#888">perturbation</text>
    <text x="450" y="120" text-anchor="middle" font-size="10" fill="#ccc" transform="rotate(6,450,120)">step</text>
    <text x="40" y="142" text-anchor="middle" font-size="13" fill="#aaa" transform="rotate(-8,40,142)">foot</text>
    <text x="155" y="142" text-anchor="middle" font-size="16" fill="#666">foot placement</text>
    <text x="348" y="142" text-anchor="middle" font-size="15" fill="#666">eye tracking</text>
    <text x="452" y="142" text-anchor="middle" font-size="11" fill="#bbb" transform="rotate(7,452,142)">gaze</text>
    <text x="30" y="162" text-anchor="middle" font-size="11" fill="#bbb" transform="rotate(-10,30,162)">walk</text>
    <text x="148" y="162" text-anchor="middle" font-size="16" fill="#555">Tobii Pro Glasses</text>
    <text x="358" y="162" text-anchor="middle" font-size="15" fill="#666">spatial mapping</text>
    <text x="460" y="162" text-anchor="middle" font-size="10" fill="#ccc" transform="rotate(8,460,162)">fixation</text>
    <text x="145" y="196" text-anchor="middle" font-family="Georgia,serif" font-size="32" fill="#cc0000" font-weight="bold" transform="rotate(-5,145,196)">amputees</text>
    <text x="395" y="192" text-anchor="middle" font-family="Georgia,serif" font-size="26" fill="#cc0000" font-weight="bold" transform="rotate(5,395,192)">stairs</text>
    <text x="22" y="222" text-anchor="middle" font-size="11" fill="#bbb" transform="rotate(-90,22,222)">gaze</text>
    <text x="155" y="222" text-anchor="middle" font-size="14" fill="#888">fixation</text>
    <text x="268" y="222" text-anchor="middle" font-size="14" fill="#888">visual strategy</text>
    <text x="398" y="222" text-anchor="middle" font-size="13" fill="#aaa">locomotion</text>
    <text x="462" y="222" text-anchor="middle" font-size="10" fill="#ccc" transform="rotate(90,462,222)">vision</text>
    <text x="250" y="262" text-anchor="middle" font-family="Georgia,serif" font-size="46" fill="#cc0000" font-weight="bold" transform="rotate(-2,250,262)">predict</text>
    <text x="22" y="288" text-anchor="middle" font-size="10" fill="#ccc" transform="rotate(-90,22,288)">stairs</text>
    <text x="135" y="290" text-anchor="middle" font-size="14" fill="#888">anticipate</text>
    <text x="252" y="290" text-anchor="middle" font-size="15" fill="#555" font-style="italic">gaze intent</text>
    <text x="375" y="290" text-anchor="middle" font-size="13" fill="#aaa">navigation</text>
    <text x="462" y="288" text-anchor="middle" font-size="10" fill="#ccc" transform="rotate(90,462,288)">step</text>
    <text x="135" y="328" text-anchor="middle" font-family="Georgia,serif" font-size="24" fill="#cc0000" font-weight="bold" transform="rotate(8,135,328)">control</text>
    <text x="388" y="328" text-anchor="middle" font-family="Georgia,serif" font-size="22" fill="#cc0000" transform="rotate(-6,388,328)">prosthetic</text>
    <text x="30" y="355" text-anchor="middle" font-size="11" fill="#bbb" transform="rotate(-10,30,355)">terrain</text>
    <text x="145" y="355" text-anchor="middle" font-size="13" fill="#aaa">real-time</text>
    <text x="255" y="355" text-anchor="middle" font-size="14" fill="#888">locomotion mode</text>
    <text x="382" y="355" text-anchor="middle" font-size="13" fill="#aaa">adapt</text>
    <text x="460" y="355" text-anchor="middle" font-size="11" fill="#bbb" transform="rotate(8,460,355)">gaze</text>
    <text x="250" y="390" text-anchor="middle" font-family="Georgia,serif" font-size="28" fill="#cc0000" font-weight="bold" transform="rotate(3,250,390)">robotic prosthetic</text>
    <text x="72" y="415" text-anchor="middle" font-size="13" fill="#aaa" transform="rotate(-8,72,415)">fixation</text>
    <text x="165" y="415" text-anchor="middle" font-size="13" fill="#aaa">vision</text>
    <text x="252" y="415" text-anchor="middle" font-size="13" fill="#aaa">walking</text>
    <text x="340" y="415" text-anchor="middle" font-size="13" fill="#aaa">terrain</text>
    <text x="422" y="415" text-anchor="middle" font-size="12" fill="#bbb" transform="rotate(6,422,415)">foot</text>
    <text x="110" y="433" text-anchor="middle" font-size="11" fill="#bbb" transform="rotate(-5,110,433)">step</text>
    <text x="208" y="433" text-anchor="middle" font-size="11" fill="#bbb">stair nosing</text>
    <text x="302" y="433" text-anchor="middle" font-size="11" fill="#bbb">balance</text>
    <text x="385" y="433" text-anchor="middle" font-size="11" fill="#bbb" transform="rotate(5,385,433)">spatial map</text>
    <text x="152" y="450" text-anchor="middle" font-size="10" fill="#ccc" transform="rotate(-4,152,450)">gaze</text>
    <text x="252" y="450" text-anchor="middle" font-size="10" fill="#ccc">fixation</text>
    <text x="346" y="450" text-anchor="middle" font-size="10" fill="#ccc" transform="rotate(4,346,450)">vision</text>
  </g>
  <text font-family="Arial,sans-serif" font-size="10" fill="#cccccc" letter-spacing="3">
    <textPath href="#arc">IEEE EMBC 2019  ·  TOBII PRO GLASSES  ·  TRANSTIBIAL AMPUTEE  ·  STAIR TRANSITION  ·  EYE TRACKING  ·</textPath>
  </text>
</svg>
