<svg xmlns="http://www.w3.org/2000/svg" viewBox="0 0 500 500">
  <rect width="500" height="500" fill="#fff"/>
  <defs>
    <clipPath id="c"><circle cx="250" cy="250" r="236"/></clipPath>
    <path id="arc" d="M250,15 a235,235 0 1,1 -0.1,0"/>
  </defs>
  <circle cx="250" cy="250" r="236" fill="#fff" stroke="#eee" stroke-width="1"/>
  <g clip-path="url(#c)" font-family="Arial, sans-serif">
    <text x="152" y="52" text-anchor="middle" font-size="10" fill="#ddd">solar</text>
    <text x="210" y="52" text-anchor="middle" font-size="10" fill="#ddd">race</text>
    <text x="265" y="52" text-anchor="middle" font-size="10" fill="#ddd">energy</text>
    <text x="330" y="52" text-anchor="middle" font-size="10" fill="#ddd">panel</text>
    <text x="108" y="66" text-anchor="middle" font-size="10" fill="#ccc">vehicle</text>
    <text x="178" y="66" text-anchor="middle" font-size="10" fill="#ccc">track</text>
    <text x="248" y="66" text-anchor="middle" font-size="10" fill="#ccc">battery</text>
    <text x="315" y="66" text-anchor="middle" font-size="10" fill="#ccc">motor</text>
    <text x="380" y="66" text-anchor="middle" font-size="10" fill="#ccc">PCB</text>
    <text x="82" y="82" text-anchor="middle" font-size="11" fill="#bbb">speed</text>
    <text x="162" y="82" text-anchor="middle" font-size="11" fill="#bbb">circuit</text>
    <text x="248" y="82" text-anchor="middle" font-size="11" fill="#bbb">solar</text>
    <text x="328" y="82" text-anchor="middle" font-size="11" fill="#bbb">race</text>
    <text x="408" y="82" text-anchor="middle" font-size="11" fill="#bbb">road</text>
    <text x="68" y="100" text-anchor="middle" font-size="12" fill="#aaa" transform="rotate(-5,68,100)">panel</text>
    <text x="170" y="100" text-anchor="middle" font-size="12" fill="#aaa">energy</text>
    <text x="252" y="100" text-anchor="middle" font-size="12" fill="#aaa">BMS</text>
    <text x="332" y="100" text-anchor="middle" font-size="12" fill="#aaa">CAN bus</text>
    <text x="418" y="100" text-anchor="middle" font-size="11" fill="#bbb" transform="rotate(5,418,100)">battery</text>
    <text x="50" y="120" text-anchor="middle" font-size="13" fill="#aaa" transform="rotate(-6,50,120)">welding</text>
    <text x="152" y="120" text-anchor="middle" font-size="14" fill="#888">sustainability</text>
    <text x="308" y="120" text-anchor="middle" font-size="14" fill="#888">multi-occupancy</text>
    <text x="440" y="120" text-anchor="middle" font-size="11" fill="#bbb" transform="rotate(5,440,120)">motor</text>
    <text x="40" y="142" text-anchor="middle" font-size="13" fill="#aaa" transform="rotate(-8,40,142)">PCB</text>
    <text x="145" y="142" text-anchor="middle" font-size="16" fill="#666">Formula Sun Grand Prix</text>
    <text x="370" y="142" text-anchor="middle" font-size="15" fill="#666">1 occupant</text>
    <text x="455" y="142" text-anchor="middle" font-size="11" fill="#bbb" transform="rotate(7,455,142)">road</text>
    <text x="30" y="162" text-anchor="middle" font-size="11" fill="#bbb" transform="rotate(-10,30,162)">track</text>
    <text x="145" y="162" text-anchor="middle" font-size="16" fill="#555">competition</text>
    <text x="360" y="162" text-anchor="middle" font-size="15" fill="#666">NC State</text>
    <text x="460" y="162" text-anchor="middle" font-size="10" fill="#ccc" transform="rotate(8,460,162)">solar</text>
    <text x="145" y="196" text-anchor="middle" font-family="Georgia,serif" font-size="30" fill="#cc0000" font-weight="bold" transform="rotate(-5,145,196)">compete</text>
    <text x="392" y="192" text-anchor="middle" font-family="Georgia,serif" font-size="26" fill="#cc0000" font-weight="bold" transform="rotate(5,392,192)">commute</text>
    <text x="22" y="222" text-anchor="middle" font-size="11" fill="#bbb" transform="rotate(-90,22,222)">track</text>
    <text x="155" y="222" text-anchor="middle" font-size="14" fill="#888">road-ready</text>
    <text x="268" y="222" text-anchor="middle" font-size="14" fill="#888">practical mobility</text>
    <text x="395" y="222" text-anchor="middle" font-size="13" fill="#aaa">everyday</text>
    <text x="462" y="222" text-anchor="middle" font-size="10" fill="#ccc" transform="rotate(90,462,222)">solar</text>
    <text x="250" y="262" text-anchor="middle" font-family="Georgia,serif" font-size="50" fill="#cc0000" font-weight="bold" transform="rotate(-2,250,262)">solar</text>
    <text x="22" y="288" text-anchor="middle" font-size="10" fill="#ccc" transform="rotate(-90,22,288)">race</text>
    <text x="135" y="290" text-anchor="middle" font-size="14" fill="#888">off-track</text>
    <text x="252" y="290" text-anchor="middle" font-size="15" fill="#555" font-style="italic">for everyone</text>
    <text x="375" y="290" text-anchor="middle" font-size="13" fill="#aaa">sustainable</text>
    <text x="462" y="288" text-anchor="middle" font-size="10" fill="#ccc" transform="rotate(90,462,288)">panel</text>
    <text x="135" y="328" text-anchor="middle" font-family="Georgia,serif" font-size="26" fill="#cc0000" font-weight="bold" transform="rotate(8,135,328)">4 seats</text>
    <text x="392" y="328" text-anchor="middle" font-family="Georgia,serif" font-size="22" fill="#cc0000" transform="rotate(-6,392,328)">road-ready</text>
    <text x="30" y="355" text-anchor="middle" font-size="11" fill="#bbb" transform="rotate(-10,30,355)">BMS</text>
    <text x="145" y="355" text-anchor="middle" font-size="13" fill="#aaa">CAN bus</text>
    <text x="255" y="355" text-anchor="middle" font-size="14" fill="#888">solar energy</text>
    <text x="382" y="355" text-anchor="middle" font-size="13" fill="#aaa">battery</text>
    <text x="460" y="355" text-anchor="middle" font-size="11" fill="#bbb" transform="rotate(8,460,355)">PCB</text>
    <text x="250" y="390" text-anchor="middle" font-family="Georgia,serif" font-size="27" fill="#cc0000" font-weight="bold" transform="rotate(3,250,390)">practical</text>
    <text x="72" y="415" text-anchor="middle" font-size="13" fill="#aaa" transform="rotate(-8,72,415)">solar</text>
    <text x="162" y="415" text-anchor="middle" font-size="13" fill="#aaa">panel</text>
    <text x="252" y="415" text-anchor="middle" font-size="13" fill="#aaa">vehicle</text>
    <text x="338" y="415" text-anchor="middle" font-size="13" fill="#aaa">road</text>
    <text x="422" y="415" text-anchor="middle" font-size="12" fill="#bbb" transform="rotate(6,422,415)">energy</text>
    <text x="110" y="433" text-anchor="middle" font-size="11" fill="#bbb" transform="rotate(-5,110,433)">race</text>
    <text x="205" y="433" text-anchor="middle" font-size="11" fill="#bbb">motor</text>
    <text x="295" y="433" text-anchor="middle" font-size="11" fill="#bbb">battery</text>
    <text x="385" y="433" text-anchor="middle" font-size="11" fill="#bbb" transform="rotate(5,385,433)">track</text>
    <text x="152" y="450" text-anchor="middle" font-size="10" fill="#ccc" transform="rotate(-4,152,450)">solar</text>
    <text x="252" y="450" text-anchor="middle" font-size="10" fill="#ccc">race</text>
    <text x="346" y="450" text-anchor="middle" font-size="10" fill="#ccc" transform="rotate(4,346,450)">energy</text>
  </g>
  <text font-family="Arial,sans-serif" font-size="10" fill="#cccccc" letter-spacing="3">
    <textPath href="#arc">FSGP 2017  ·  AMERICAN SOLAR CHALLENGE  ·  NC STATE  ·  BATTERY MANAGEMENT  ·  CAN BUS  ·  WELDING  ·</textPath>
  </text>
</svg>
