<svg xmlns="http://www.w3.org/2000/svg" viewBox="0 0 500 500">
  <rect width="500" height="500" fill="#ffffff"/>
  <defs>
    <clipPath id="c"><circle cx="250" cy="250" r="238"/></clipPath>
    <path id="arc" d="M250,14 a236,236 0 1,1 -0.1,0"/>
  </defs>
  <circle cx="250" cy="250" r="238" fill="#fff" stroke="#f0f0f0" stroke-width="1.5"/>
  <g clip-path="url(#c)">
    <!-- background -->
    <text x="148" y="62" text-anchor="middle" font-family="Arial,sans-serif" font-size="9" fill="#e8e8e8" transform="rotate(-7,148,62)">gait</text>
    <text x="250" y="58" text-anchor="middle" font-family="Arial,sans-serif" font-size="9" fill="#e5e5e5">diagnosis</text>
    <text x="352" y="63" text-anchor="middle" font-family="Arial,sans-serif" font-size="9" fill="#e8e8e8" transform="rotate(6,352,63)">walking</text>
    <text x="95" y="82" text-anchor="middle" font-family="Arial,sans-serif" font-size="9" fill="#ebebeb" transform="rotate(-11,95,82)">observe</text>
    <text x="182" y="80" text-anchor="middle" font-family="Arial,sans-serif" font-size="9" fill="#e8e8e8" transform="rotate(4,182,80)">gaze</text>
    <text x="275" y="78" text-anchor="middle" font-family="Arial,sans-serif" font-size="9" fill="#ededed" transform="rotate(-5,275,78)">fixation</text>
    <text x="362" y="82" text-anchor="middle" font-family="Arial,sans-serif" font-size="9" fill="#e8e8e8" transform="rotate(8,362,82)">motion</text>
    <text x="418" y="80" text-anchor="middle" font-family="Arial,sans-serif" font-size="9" fill="#ebebeb" transform="rotate(-4,418,80)">patient</text>
    <text x="72" y="105" text-anchor="middle" font-family="Arial,sans-serif" font-size="9" fill="#e8e8e8" transform="rotate(-13,72,105)">clinical</text>
    <text x="172" y="102" text-anchor="middle" font-family="Arial,sans-serif" font-size="9" fill="#e5e5e5" transform="rotate(5,172,102)">video</text>
    <text x="250" y="100" text-anchor="middle" font-family="Arial,sans-serif" font-size="9" fill="#eaeaea">limb</text>
    <text x="332" y="104" text-anchor="middle" font-family="Arial,sans-serif" font-size="9" fill="#e8e8e8" transform="rotate(-6,332,104)">gait</text>
    <text x="425" y="102" text-anchor="middle" font-family="Arial,sans-serif" font-size="9" fill="#ebebeb" transform="rotate(9,425,102)">heatmap</text>
    <text x="48" y="132" text-anchor="middle" font-family="Arial,sans-serif" font-size="9" fill="#e8e8e8" transform="rotate(-15,48,132)">observe</text>
    <text x="145" y="130" text-anchor="middle" font-family="Arial,sans-serif" font-size="9" fill="#eaeaea" transform="rotate(7,145,130)">diagnosis</text>
    <text x="352" y="132" text-anchor="middle" font-family="Arial,sans-serif" font-size="9" fill="#e8e8e8" transform="rotate(-8,352,132)">fixation</text>
    <text x="448" y="130" text-anchor="middle" font-family="Arial,sans-serif" font-size="9" fill="#ebebeb" transform="rotate(5,448,130)">walking</text>
    <text x="30" y="162" text-anchor="middle" font-family="Arial,sans-serif" font-size="9" fill="#eeeeee" transform="rotate(-10,30,162)">gait</text>
    <text x="462" y="160" text-anchor="middle" font-family="Arial,sans-serif" font-size="9" fill="#eeeeee" transform="rotate(8,462,160)">limb</text>
    <text x="28" y="200" text-anchor="middle" font-family="Arial,sans-serif" font-size="9" fill="#eeeeee" transform="rotate(-12,28,200)">clinical</text>
    <text x="462" y="200" text-anchor="middle" font-family="Arial,sans-serif" font-size="9" fill="#eeeeee" transform="rotate(10,462,200)">gaze</text>
    <text x="22" y="250" text-anchor="middle" font-family="Arial,sans-serif" font-size="9" fill="#eee" transform="rotate(-90,22,250)">novice</text>
    <text x="478" y="250" text-anchor="middle" font-family="Arial,sans-serif" font-size="9" fill="#eee" transform="rotate(90,478,250)">PT student</text>
    <text x="28" y="300" text-anchor="middle" font-family="Arial,sans-serif" font-size="9" fill="#eeeeee" transform="rotate(-8,28,300)">fixation</text>
    <text x="462" y="300" text-anchor="middle" font-family="Arial,sans-serif" font-size="9" fill="#eeeeee" transform="rotate(10,462,300)">video</text>
    <text x="35" y="338" text-anchor="middle" font-family="Arial,sans-serif" font-size="9" fill="#eeeeee" transform="rotate(-6,35,338)">observe</text>
    <text x="462" y="340" text-anchor="middle" font-family="Arial,sans-serif" font-size="9" fill="#eeeeee" transform="rotate(8,462,340)">gait</text>
    <text x="50" y="372" text-anchor="middle" font-family="Arial,sans-serif" font-size="9" fill="#ebebeb" transform="rotate(-10,50,372)">motion</text>
    <text x="448" y="372" text-anchor="middle" font-family="Arial,sans-serif" font-size="9" fill="#ebebeb" transform="rotate(8,448,372)">diagnosis</text>
    <text x="78" y="400" text-anchor="middle" font-family="Arial,sans-serif" font-size="9" fill="#e8e8e8" transform="rotate(-12,78,400)">clinical</text>
    <text x="185" y="405" text-anchor="middle" font-family="Arial,sans-serif" font-size="9" fill="#e8e8e8" transform="rotate(4,185,405)">patient</text>
    <text x="338" y="402" text-anchor="middle" font-family="Arial,sans-serif" font-size="9" fill="#e8e8e8" transform="rotate(-5,338,402)">heatmap</text>
    <text x="418" y="400" text-anchor="middle" font-family="Arial,sans-serif" font-size="9" fill="#ebebeb" transform="rotate(10,418,400)">fixation</text>
    <text x="102" y="428" text-anchor="middle" font-family="Arial,sans-serif" font-size="9" fill="#e8e8e8" transform="rotate(-8,102,428)">gaze</text>
    <text x="250" y="432" text-anchor="middle" font-family="Arial,sans-serif" font-size="9" fill="#e5e5e5">walking</text>
    <text x="395" y="426" text-anchor="middle" font-family="Arial,sans-serif" font-size="9" fill="#e8e8e8" transform="rotate(7,395,426)">limb</text>
    <text x="150" y="452" text-anchor="middle" font-family="Arial,sans-serif" font-size="9" fill="#e8e8e8" transform="rotate(-5,150,452)">observe</text>
    <text x="352" y="450" text-anchor="middle" font-family="Arial,sans-serif" font-size="9" fill="#e8e8e8" transform="rotate(5,352,450)">motion</text>
    <!-- medium -->
    <text x="250" y="300" text-anchor="middle" font-family="Arial,sans-serif" font-size="13" fill="#bbb" transform="rotate(3,250,300)">point-light walker</text>
    <text x="138" y="345" text-anchor="middle" font-family="Arial,sans-serif" font-size="12" fill="#bbb" transform="rotate(8,138,345)">legs 78%</text>
    <text x="362" y="345" text-anchor="middle" font-family="Arial,sans-serif" font-size="12" fill="#bbb" transform="rotate(-6,362,345)">biological motion</text>
    <text x="250" y="168" text-anchor="middle" font-family="Arial,sans-serif" font-size="12" fill="#ccc" transform="rotate(-4,250,168)">eye tracking</text>
    <text x="105" y="255" text-anchor="middle" font-family="Arial,sans-serif" font-size="11" fill="#ccc" transform="rotate(-8,105,255)">intervention</text>
    <text x="398" y="255" text-anchor="middle" font-family="Arial,sans-serif" font-size="11" fill="#ccc" transform="rotate(8,398,255)">kinematics</text>
    <!-- KEY words -->
    <text x="250" y="215" text-anchor="middle" font-family="Georgia,serif" font-size="38" fill="#cc0000" font-weight="bold" transform="rotate(-3,250,215)">expertise</text>
    <text x="152" y="138" text-anchor="middle" font-family="Georgia,serif" font-size="30" fill="#cc0000" font-weight="bold" transform="rotate(-10,152,138)">pelvis</text>
    <text x="372" y="145" text-anchor="middle" font-family="Georgia,serif" font-size="26" fill="#cc0000" transform="rotate(9,372,145)">shoulder</text>
    <text x="128" y="312" text-anchor="middle" font-family="Georgia,serif" font-size="24" fill="#cc0000" transform="rotate(11,128,312)">PT student</text>
    <text x="376" y="318" text-anchor="middle" font-family="Georgia,serif" font-size="20" fill="#cc0000" transform="rotate(-9,376,318)">diagnosis</text>
    <text x="250" y="382" text-anchor="middle" font-family="Georgia,serif" font-size="24" fill="#cc0000" font-weight="bold" transform="rotate(4,250,382)">trained to see</text>
    <text x="250" y="262" text-anchor="middle" font-family="Georgia,serif" font-size="18" fill="#dd4444" font-style="italic">21% · 21%</text>
  </g>
  <text font-family="Arial,sans-serif" font-size="10" fill="#cccccc" letter-spacing="3">
    <textPath href="#arc">ICOPA 2019  ·  PCA  ·  GAIT DIAGNOSIS  ·  PHYSICAL THERAPY  ·  EYE TRACKING  ·  HEATMAP  ·  BIOLOGICAL MOTION  ·</textPath>
  </text>
</svg>
