<svg xmlns="http://www.w3.org/2000/svg" viewBox="0 0 500 500">
  <rect width="500" height="500" fill="#ffffff"/>
  <defs>
    <clipPath id="c"><circle cx="250" cy="250" r="238"/></clipPath>
    <path id="arc" d="M250,14 a236,236 0 1,1 -0.1,0"/>
  </defs>
  <circle cx="250" cy="250" r="238" fill="#fff" stroke="#f0f0f0" stroke-width="1.5"/>
  <g clip-path="url(#c)">
    <!-- dense background: small repeated words -->
    <text x="148" y="62" text-anchor="middle" font-family="Arial,sans-serif" font-size="9" fill="#e8e8e8" transform="rotate(-7,148,62)">touch</text>
    <text x="250" y="58" text-anchor="middle" font-family="Arial,sans-serif" font-size="9" fill="#e5e5e5">vibration</text>
    <text x="352" y="63" text-anchor="middle" font-family="Arial,sans-serif" font-size="9" fill="#e8e8e8" transform="rotate(6,352,63)">mechanical</text>
    <text x="95" y="82" text-anchor="middle" font-family="Arial,sans-serif" font-size="9" fill="#ebebeb" transform="rotate(-11,95,82)">haptic</text>
    <text x="182" y="80" text-anchor="middle" font-family="Arial,sans-serif" font-size="9" fill="#e8e8e8" transform="rotate(4,182,80)">skin</text>
    <text x="275" y="78" text-anchor="middle" font-family="Arial,sans-serif" font-size="9" fill="#ededed" transform="rotate(-5,275,78)">pump</text>
    <text x="362" y="82" text-anchor="middle" font-family="Arial,sans-serif" font-size="9" fill="#e8e8e8" transform="rotate(8,362,82)">patch</text>
    <text x="418" y="80" text-anchor="middle" font-family="Arial,sans-serif" font-size="9" fill="#ebebeb" transform="rotate(-4,418,80)">silicone</text>
    <text x="72" y="105" text-anchor="middle" font-family="Arial,sans-serif" font-size="9" fill="#e8e8e8" transform="rotate(-13,72,105)">compound</text>
    <text x="170" y="102" text-anchor="middle" font-family="Arial,sans-serif" font-size="9" fill="#e5e5e5" transform="rotate(5,170,102)">liquid</text>
    <text x="250" y="100" text-anchor="middle" font-family="Arial,sans-serif" font-size="9" fill="#eaeaea">actuation</text>
    <text x="332" y="104" text-anchor="middle" font-family="Arial,sans-serif" font-size="9" fill="#e8e8e8" transform="rotate(-6,332,104)">nerve</text>
    <text x="425" y="102" text-anchor="middle" font-family="Arial,sans-serif" font-size="9" fill="#ebebeb" transform="rotate(9,425,102)">signal</text>
    <text x="48" y="132" text-anchor="middle" font-family="Arial,sans-serif" font-size="9" fill="#e8e8e8" transform="rotate(-15,48,132)">receptor</text>
    <text x="145" y="130" text-anchor="middle" font-family="Arial,sans-serif" font-size="9" fill="#eaeaea" transform="rotate(7,145,130)">stimulant</text>
    <text x="352" y="132" text-anchor="middle" font-family="Arial,sans-serif" font-size="9" fill="#e8e8e8" transform="rotate(-8,352,132)">actuator</text>
    <text x="448" y="130" text-anchor="middle" font-family="Arial,sans-serif" font-size="9" fill="#ebebeb" transform="rotate(5,448,130)">device</text>
    <text x="30" y="162" text-anchor="middle" font-family="Arial,sans-serif" font-size="9" fill="#eeeeee" transform="rotate(-10,30,162)">touch</text>
    <text x="460" y="160" text-anchor="middle" font-family="Arial,sans-serif" font-size="9" fill="#eeeeee" transform="rotate(8,460,160)">pressure</text>
    <text x="30" y="200" text-anchor="middle" font-family="Arial,sans-serif" font-size="9" fill="#eeeeee" transform="rotate(-12,30,200)">vibration</text>
    <text x="462" y="200" text-anchor="middle" font-family="Arial,sans-serif" font-size="9" fill="#eeeeee" transform="rotate(10,462,200)">haptic</text>
    <text x="22" y="250" text-anchor="middle" font-family="Arial,sans-serif" font-size="9" fill="#eee" transform="rotate(-90,22,250)">skin</text>
    <text x="478" y="250" text-anchor="middle" font-family="Arial,sans-serif" font-size="9" fill="#eee" transform="rotate(90,478,250)">chemical</text>
    <text x="30" y="300" text-anchor="middle" font-family="Arial,sans-serif" font-size="9" fill="#eeeeee" transform="rotate(-8,30,300)">pump</text>
    <text x="462" y="300" text-anchor="middle" font-family="Arial,sans-serif" font-size="9" fill="#eeeeee" transform="rotate(10,462,300)">patch</text>
    <text x="35" y="338" text-anchor="middle" font-family="Arial,sans-serif" font-size="9" fill="#eeeeee" transform="rotate(-6,35,338)">compound</text>
    <text x="462" y="340" text-anchor="middle" font-family="Arial,sans-serif" font-size="9" fill="#eeeeee" transform="rotate(8,462,340)">silicone</text>
    <text x="50" y="372" text-anchor="middle" font-family="Arial,sans-serif" font-size="9" fill="#ebebeb" transform="rotate(-10,50,372)">receptor</text>
    <text x="448" y="372" text-anchor="middle" font-family="Arial,sans-serif" font-size="9" fill="#ebebeb" transform="rotate(8,448,372)">nerve</text>
    <text x="75" y="400" text-anchor="middle" font-family="Arial,sans-serif" font-size="9" fill="#e8e8e8" transform="rotate(-12,75,400)">wearable</text>
    <text x="180" y="405" text-anchor="middle" font-family="Arial,sans-serif" font-size="9" fill="#e8e8e8" transform="rotate(4,180,405)">actuation</text>
    <text x="338" y="402" text-anchor="middle" font-family="Arial,sans-serif" font-size="9" fill="#e8e8e8" transform="rotate(-5,338,402)">actuator</text>
    <text x="420" y="400" text-anchor="middle" font-family="Arial,sans-serif" font-size="9" fill="#ebebeb" transform="rotate(10,420,400)">device</text>
    <text x="100" y="428" text-anchor="middle" font-family="Arial,sans-serif" font-size="9" fill="#e8e8e8" transform="rotate(-8,100,428)">signal</text>
    <text x="250" y="432" text-anchor="middle" font-family="Arial,sans-serif" font-size="9" fill="#e5e5e5">touch</text>
    <text x="395" y="426" text-anchor="middle" font-family="Arial,sans-serif" font-size="9" fill="#e8e8e8" transform="rotate(7,395,426)">vibration</text>
    <text x="148" y="452" text-anchor="middle" font-family="Arial,sans-serif" font-size="9" fill="#e8e8e8" transform="rotate(-5,148,452)">pressure</text>
    <text x="352" y="450" text-anchor="middle" font-family="Arial,sans-serif" font-size="9" fill="#e8e8e8" transform="rotate(5,352,450)">mechanical</text>
    <!-- medium support words -->
    <text x="250" y="300" text-anchor="middle" font-family="Arial,sans-serif" font-size="13" fill="#bbb" transform="rotate(3,250,300)">skin receptors</text>
    <text x="140" y="345" text-anchor="middle" font-family="Arial,sans-serif" font-size="12" fill="#bbb" transform="rotate(8,140,345)">nociceptors</text>
    <text x="362" y="345" text-anchor="middle" font-family="Arial,sans-serif" font-size="12" fill="#bbb" transform="rotate(-6,362,345)">thermoreceptors</text>
    <text x="250" y="168" text-anchor="middle" font-family="Arial,sans-serif" font-size="12" fill="#ccc" transform="rotate(-4,250,168)">topical stimulants</text>
    <text x="105" y="255" text-anchor="middle" font-family="Arial,sans-serif" font-size="11" fill="#ccc" transform="rotate(-8,105,255)">mechanoreceptors</text>
    <text x="398" y="255" text-anchor="middle" font-family="Arial,sans-serif" font-size="11" fill="#ccc" transform="rotate(8,398,255)">micropump</text>
    <!-- KEY highlighted words -->
    <text x="250" y="215" text-anchor="middle" font-family="Georgia,serif" font-size="42" fill="#cc0000" font-weight="bold" transform="rotate(-3,250,215)">chemistry</text>
    <text x="155" y="138" text-anchor="middle" font-family="Georgia,serif" font-size="28" fill="#cc0000" font-weight="bold" transform="rotate(-10,155,138)">warmth</text>
    <text x="372" y="145" text-anchor="middle" font-family="Georgia,serif" font-size="25" fill="#cc0000" transform="rotate(9,372,145)">cold</text>
    <text x="130" y="312" text-anchor="middle" font-family="Georgia,serif" font-size="22" fill="#cc0000" transform="rotate(11,130,312)">tingling</text>
    <text x="375" y="318" text-anchor="middle" font-family="Georgia,serif" font-size="20" fill="#cc0000" transform="rotate(-9,375,318)">stinging</text>
    <text x="250" y="382" text-anchor="middle" font-family="Georgia,serif" font-size="26" fill="#cc0000" font-weight="bold" transform="rotate(4,250,382)">numbing</text>
    <text x="250" y="262" text-anchor="middle" font-family="Georgia,serif" font-size="18" fill="#dd4444" font-style="italic">sensation</text>
  </g>
  <text font-family="Arial,sans-serif" font-size="10" fill="#cccccc" letter-spacing="3">
    <textPath href="#arc">UIST 2021  ·  HAPTIC INTERFACE  ·  WEARABLE  ·  SANSHOOL  ·  LIDOCAINE  ·  CAPSAICIN  ·  MENTHOL  ·  CINNAMALDEHYDE  ·</textPath>
  </text>
</svg>
