<svg xmlns="http://www.w3.org/2000/svg" viewBox="0 0 500 500">
  <rect width="500" height="500" fill="#fff"/>
  <defs>
    <clipPath id="c"><circle cx="250" cy="250" r="236"/></clipPath>
    <path id="arc" d="M250,15 a235,235 0 1,1 -0.1,0"/>
  </defs>
  <circle cx="250" cy="250" r="236" fill="#fff" stroke="#eee" stroke-width="1"/>
  <g clip-path="url(#c)" font-family="Arial, sans-serif">
    <text x="152" y="52" text-anchor="middle" font-size="10" fill="#ddd">gait</text>
    <text x="210" y="52" text-anchor="middle" font-size="10" fill="#ddd">diagnosis</text>
    <text x="280" y="52" text-anchor="middle" font-size="10" fill="#ddd">walking</text>
    <text x="342" y="52" text-anchor="middle" font-size="10" fill="#ddd">observe</text>
    <text x="108" y="66" text-anchor="middle" font-size="10" fill="#ccc">fixation</text>
    <text x="175" y="66" text-anchor="middle" font-size="10" fill="#ccc">limb</text>
    <text x="252" y="66" text-anchor="middle" font-size="10" fill="#ccc">motion</text>
    <text x="318" y="66" text-anchor="middle" font-size="10" fill="#ccc">video</text>
    <text x="380" y="66" text-anchor="middle" font-size="10" fill="#ccc">gaze</text>
    <text x="82" y="82" text-anchor="middle" font-size="11" fill="#bbb">clinical</text>
    <text x="168" y="82" text-anchor="middle" font-size="11" fill="#bbb">patient</text>
    <text x="252" y="82" text-anchor="middle" font-size="11" fill="#bbb">heatmap</text>
    <text x="335" y="82" text-anchor="middle" font-size="11" fill="#bbb">gait</text>
    <text x="412" y="82" text-anchor="middle" font-size="11" fill="#bbb">novice</text>
    <text x="68" y="100" text-anchor="middle" font-size="12" fill="#aaa" transform="rotate(-5,68,100)">observe</text>
    <text x="175" y="100" text-anchor="middle" font-size="12" fill="#aaa">diagnosis</text>
    <text x="258" y="100" text-anchor="middle" font-size="12" fill="#aaa">kinematics</text>
    <text x="345" y="100" text-anchor="middle" font-size="12" fill="#aaa">pattern</text>
    <text x="418" y="100" text-anchor="middle" font-size="11" fill="#bbb" transform="rotate(5,418,100)">limb</text>
    <text x="50" y="120" text-anchor="middle" font-size="13" fill="#aaa" transform="rotate(-6,50,120)">video</text>
    <text x="155" y="120" text-anchor="middle" font-size="14" fill="#888">point-light walker</text>
    <text x="348" y="120" text-anchor="middle" font-size="14" fill="#888">biological motion</text>
    <text x="452" y="120" text-anchor="middle" font-size="10" fill="#ccc" transform="rotate(6,452,120)">gait</text>
    <text x="40" y="142" text-anchor="middle" font-size="13" fill="#aaa" transform="rotate(-8,40,142)">motion</text>
    <text x="148" y="142" text-anchor="middle" font-size="16" fill="#666">intervention</text>
    <text x="345" y="142" text-anchor="middle" font-size="15" fill="#666">eye tracking</text>
    <text x="455" y="142" text-anchor="middle" font-size="11" fill="#bbb" transform="rotate(7,455,142)">legs</text>
    <text x="30" y="162" text-anchor="middle" font-size="11" fill="#bbb" transform="rotate(-10,30,162)">PCA</text>
    <text x="148" y="162" text-anchor="middle" font-size="16" fill="#555">gait analysis</text>
    <text x="352" y="162" text-anchor="middle" font-size="16" fill="#555">physical therapy</text>
    <text x="460" y="162" text-anchor="middle" font-size="10" fill="#ccc" transform="rotate(8,460,162)">fixation</text>
    <text x="148" y="196" text-anchor="middle" font-family="Georgia,serif" font-size="30" fill="#cc0000" font-weight="bold" transform="rotate(-5,148,196)">pelvis</text>
    <text x="392" y="192" text-anchor="middle" font-family="Georgia,serif" font-size="28" fill="#cc0000" font-weight="bold" transform="rotate(5,392,192)">shoulder</text>
    <text x="22" y="222" text-anchor="middle" font-size="11" fill="#bbb" transform="rotate(-90,22,222)">novice</text>
    <text x="155" y="222" text-anchor="middle" font-size="14" fill="#888">legs 78%</text>
    <text x="268" y="222" text-anchor="middle" font-size="14" fill="#888">trained gaze</text>
    <text x="395" y="222" text-anchor="middle" font-size="13" fill="#aaa">proximal</text>
    <text x="462" y="222" text-anchor="middle" font-size="10" fill="#ccc" transform="rotate(90,462,222)">PT</text>
    <text x="250" y="262" text-anchor="middle" font-family="Georgia,serif" font-size="42" fill="#cc0000" font-weight="bold" transform="rotate(-2,250,262)">expertise</text>
    <text x="22" y="288" text-anchor="middle" font-size="10" fill="#ccc" transform="rotate(-90,22,288)">gait</text>
    <text x="135" y="290" text-anchor="middle" font-size="14" fill="#888">diagnosis</text>
    <text x="252" y="290" text-anchor="middle" font-size="15" fill="#555" font-style="italic">trained to see</text>
    <text x="375" y="290" text-anchor="middle" font-size="13" fill="#aaa">21%  ·  21%</text>
    <text x="462" y="288" text-anchor="middle" font-size="10" fill="#ccc" transform="rotate(90,462,288)">gaze</text>
    <text x="135" y="328" text-anchor="middle" font-family="Georgia,serif" font-size="24" fill="#cc0000" font-weight="bold" transform="rotate(8,135,328)">PT student</text>
    <text x="390" y="328" text-anchor="middle" font-family="Georgia,serif" font-size="21" fill="#cc0000" transform="rotate(-6,390,328)">diagnosis</text>
    <text x="30" y="355" text-anchor="middle" font-size="11" fill="#bbb" transform="rotate(-10,30,355)">video</text>
    <text x="145" y="355" text-anchor="middle" font-size="13" fill="#aaa">observation</text>
    <text x="255" y="355" text-anchor="middle" font-size="14" fill="#888">biological motion</text>
    <text x="382" y="355" text-anchor="middle" font-size="13" fill="#aaa">heatmap</text>
    <text x="458" y="355" text-anchor="middle" font-size="11" fill="#bbb" transform="rotate(8,458,355)">limb</text>
    <text x="250" y="390" text-anchor="middle" font-family="Georgia,serif" font-size="26" fill="#cc0000" font-weight="bold" transform="rotate(3,250,390)">clinical eye</text>
    <text x="72" y="415" text-anchor="middle" font-size="13" fill="#aaa" transform="rotate(-8,72,415)">gait</text>
    <text x="162" y="415" text-anchor="middle" font-size="13" fill="#aaa">motion</text>
    <text x="252" y="415" text-anchor="middle" font-size="13" fill="#aaa">diagnosis</text>
    <text x="342" y="415" text-anchor="middle" font-size="13" fill="#aaa">clinical</text>
    <text x="425" y="415" text-anchor="middle" font-size="12" fill="#bbb" transform="rotate(6,425,415)">observe</text>
    <text x="110" y="433" text-anchor="middle" font-size="11" fill="#bbb" transform="rotate(-5,110,433)">kinematics</text>
    <text x="210" y="433" text-anchor="middle" font-size="11" fill="#bbb">pattern</text>
    <text x="298" y="433" text-anchor="middle" font-size="11" fill="#bbb">heatmap</text>
    <text x="388" y="433" text-anchor="middle" font-size="11" fill="#bbb" transform="rotate(5,388,433)">novice</text>
    <text x="152" y="450" text-anchor="middle" font-size="10" fill="#ccc" transform="rotate(-4,152,450)">walking</text>
    <text x="252" y="450" text-anchor="middle" font-size="10" fill="#ccc">gait</text>
    <text x="346" y="450" text-anchor="middle" font-size="10" fill="#ccc" transform="rotate(4,346,450)">diagnosis</text>
  </g>
  <text font-family="Arial,sans-serif" font-size="10" fill="#cccccc" letter-spacing="3">
    <textPath href="#arc">ICOPA 2019  ·  PCA  ·  GAIT DIAGNOSIS  ·  PHYSICAL THERAPY  ·  HEATMAP  ·  BIOLOGICAL MOTION  ·</textPath>
  </text>
</svg>
